<?xml version="1.0" standalone="no"?>
<!DOCTYPE svg PUBLIC "-//W3C//DTD SVG 20010904//EN"
 "http://www.w3.org/TR/2001/REC-SVG-20010904/DTD/svg10.dtd">
<svg version="1.0" xmlns="http://www.w3.org/2000/svg"
 width="200.000000pt" height="200.000000pt" viewBox="0 0 200.000000 200.000000"
 preserveAspectRatio="xMidYMid meet">
<metadata>
Created by potrace 1.11, written by Peter Selinger 2001-2013
</metadata>
<g transform="translate(0.000000,200.000000) scale(0.100000,-0.100000)"
fill="#000000" stroke="none">
<path d="M915 1815 c-152 -39 -270 -103 -379 -204 -386 -362 -349 -993 77
-1302 85 -62 206 -120 302 -145 75 -19 276 -26 350 -11 124 24 245 74 339 141
90 64 90 65 49 109 l-35 39 -26 -25 c-104 -97 -294 -168 -456 -169 -104 -2
-163 7 -256 38 -311 104 -518 404 -505 733 7 197 77 353 220 496 152 151 311
218 520 219 204 0 387 -73 523 -211 13 -13 26 -23 30 -23 11 0 72 57 72 67 0
12 -62 68 -126 115 -192 141 -466 193 -699 133z"/>
<path d="M1000 1664 c-145 -27 -260 -89 -366 -197 -168 -172 -233 -410 -174
-640 93 -365 466 -587 830 -495 82 21 204 82 257 128 l33 30 -33 36 -34 37
-61 -42 c-111 -75 -202 -103 -334 -102 -197 0 -376 99 -485 267 -90 140 -114
336 -59 490 67 191 221 332 415 381 14 3 70 7 123 9 79 2 111 -1 173 -21 86
-26 172 -74 218 -122 18 -18 36 -33 40 -33 13 0 77 51 77 62 0 24 -138 127
-220 165 -112 51 -277 71 -400 47z"/>
<path d="M1003 1476 c-176 -43 -330 -201 -367 -379 -96 -454 415 -777 791
-500 l33 24 -26 29 -27 29 -31 -24 c-18 -13 -59 -37 -91 -52 -52 -24 -72 -28
-155 -28 -115 0 -175 18 -259 80 -188 138 -225 412 -80 595 151 192 430 217
613 56 16 -14 30 -26 31 -26 1 0 14 11 30 24 l27 24 -38 35 c-114 105 -295
151 -451 113z"/>
<path d="M906 1149 c-61 -17 -97 -76 -98 -160 0 -90 61 -159 142 -159 39 0
100 27 101 46 1 8 2 22 3 31 0 10 -7 19 -16 21 -12 2 -18 -3 -18 -17 0 -46
-89 -63 -131 -25 -48 43 -49 161 -2 208 41 41 133 32 133 -14 0 -19 17 -36 26
-27 3 2 6 17 7 32 4 50 -75 84 -147 64z"/>
<path d="M1167 1136 c-93 -62 -90 -234 4 -289 38 -21 91 -22 134 -1 33 16 44
35 37 67 -5 23 -32 22 -32 -2 0 -28 -25 -44 -70 -44 -46 0 -68 15 -87 60 -38
92 6 193 85 193 46 0 64 -11 69 -41 4 -29 7 -31 26 -23 10 4 14 14 11 32 -7
35 -12 42 -42 54 -48 19 -101 17 -135 -6z"/>
<path d="M1480 1148 c-72 -27 -108 -111 -87 -208 20 -91 115 -135 203 -94 25
12 34 23 34 40 0 13 0 27 1 32 0 4 -7 8 -15 10 -10 2 -16 -4 -16 -16 0 -37
-59 -60 -107 -41 -73 27 -85 189 -18 233 51 33 125 12 125 -36 0 -31 25 -15
28 19 2 23 -3 34 -21 46 -31 20 -94 27 -127 15z"/>
</g>
</svg>
